<svg viewBox="-27 -66.5 324 324" xmlns="http://www.w3.org/2000/svg" fill="none">
  <path d="M1.36747e-05 144.417V0.000157135H27.5173V59.133C29.2086 54.3191 31.8107 50.0907 35.3236 46.4477C38.8364 42.8048 42.9347 40.0075 47.6185 38.0559C52.3023 35.9743 57.1162 34.9334 62.0602 34.9334C70.2569 34.9334 77.4126 36.7549 83.5276 40.3978C89.7726 44.0408 94.5865 49.31 97.9693 56.2056C101.352 62.9711 103.043 71.1677 103.043 80.7955V144.417H75.7213V86.0648C75.7213 77.4778 73.5095 70.7124 69.0859 65.7684C64.6623 60.8244 58.8726 58.3524 51.7169 58.3524C46.903 58.3524 42.6745 59.6534 39.0316 62.2555C35.3886 64.8576 32.5263 68.3705 30.4446 72.794C28.4931 77.2176 27.5173 82.2917 27.5173 88.0164V144.417H1.36747e-05Z" fill="#F78D2C"/>
  <path d="M106.08 190.223L121.348 91.4995C123.161 79.5077 126.996 69.3285 132.852 60.9621C138.848 52.5957 146.239 46.2512 155.023 41.9286C163.808 37.4665 173.36 35.2355 183.678 35.2355C193.857 35.2355 202.712 37.2573 210.241 41.3011C217.771 45.2054 223.628 50.8527 227.811 58.2431C232.134 65.6334 234.295 74.4878 234.295 84.8064C234.295 92.8939 232.97 100.703 230.321 108.232C227.671 115.623 223.837 122.246 218.817 128.103C213.797 133.82 207.732 138.351 200.62 141.698C193.648 145.044 185.839 146.718 177.194 146.718C169.525 146.718 162.762 145.323 156.906 142.535C151.049 139.606 146.796 135.772 144.147 131.031H143.938L134.735 190.223H106.08ZM175.103 122.246C180.82 122.246 185.909 120.712 190.371 117.645C194.973 114.437 198.598 110.184 201.248 104.886C203.897 99.587 205.222 93.5911 205.222 86.898C205.222 81.3204 204.246 76.5097 202.293 72.4659C200.341 68.4222 197.483 65.2848 193.718 63.0537C190.092 60.8227 185.63 59.7072 180.332 59.7072C174.893 59.7072 169.874 61.241 165.272 64.3087C160.671 67.3764 156.975 71.5596 154.187 76.8583C151.398 82.0176 150.003 87.9438 150.003 94.6369C150.003 100.075 151.049 104.886 153.141 109.069C155.232 113.113 158.161 116.32 161.926 118.69C165.69 121.061 170.083 122.246 175.103 122.246Z" fill="#E15E42"/>
  <path d="M249.082 146.927C243.922 146.927 239.6 145.184 236.114 141.698C232.628 138.072 230.885 133.68 230.885 128.521C230.885 124.756 231.861 121.34 233.813 118.272C235.765 115.065 238.345 112.555 241.552 110.742C244.759 108.93 248.245 108.023 252.01 108.023C257.169 108.023 261.422 109.836 264.769 113.461C268.255 117.087 269.998 121.34 269.998 126.22C269.998 129.985 269.021 133.471 267.069 136.678C265.117 139.746 262.537 142.256 259.33 144.208C256.263 146.021 252.846 146.927 249.082 146.927Z" fill="#F5D4C0"/>
</svg>
